<svg width="29" height="35" viewBox="0 0 29 35" fill="none" xmlns="http://www.w3.org/2000/svg">
<path d="M14.9187 10.134C13.5682 10.134 11.4777 8.59855 9.27616 8.65405C6.37166 8.69105 3.70766 10.3375 2.20916 12.946C-0.806342 18.1815 1.43216 25.9145 4.37366 30.1695C5.81666 32.2415 7.51866 34.5725 9.77566 34.4985C11.9402 34.406 12.7542 33.0925 15.3812 33.0925C17.9897 33.0925 18.7297 34.4985 21.0237 34.443C23.3547 34.406 24.8347 32.334 26.2592 30.2435C27.9057 27.8385 28.5902 25.5075 28.6272 25.378C28.5717 25.3595 24.0947 23.639 24.0392 18.459C24.0022 14.13 27.5727 12.058 27.7392 11.9655C25.7042 8.98705 22.5777 8.65405 21.4862 8.58005C18.6372 8.35805 16.2507 10.134 14.9187 10.134ZM19.7287 5.76805C20.9312 4.32505 21.7267 2.30855 21.5047 0.310547C19.7842 0.384547 17.7122 1.45755 16.4727 2.90055C15.3627 4.17705 14.4007 6.23055 14.6597 8.19155C16.5652 8.33955 18.5262 7.21105 19.7287 5.76805Z" fill="#3970C7"/>
</svg>
