<svg width="72" height="72" viewBox="0 0 72 72" fill="none" xmlns="http://www.w3.org/2000/svg">
<circle cx="36" cy="36" r="36" fill="white"/>
<path d="M37.9198 30.5672C36.7671 30.1597 35.5147 30.1295 34.3438 30.481C33.1728 30.8325 32.144 31.5474 31.4064 32.5224C30.6687 33.4974 30.2604 34.6818 30.2406 35.9042C30.2207 37.1266 30.5903 38.3236 31.2959 39.3221C32.0015 40.3205 33.0065 41.0685 34.1654 41.4579C35.3243 41.8472 36.5771 41.8577 37.7424 41.4878C38.9077 41.118 39.9251 40.3869 40.6473 39.4005C41.3695 38.414 41.7592 37.2234 41.7598 36.0008V17.6801C49.5492 20.1262 55.1998 27.403 55.1998 36.0008C55.1998 46.6049 46.604 55.2008 35.9998 55.2008C25.3956 55.2008 16.7998 46.6049 16.7998 36.0008C16.7998 25.3966 25.3956 16.8008 35.9998 16.8008C36.6468 16.8008 37.2881 16.8334 37.9198 16.8968V30.5672Z" fill="#141D44"/>
</svg>
