<svg width="31" height="31" viewBox="0 0 31 31" fill="none" xmlns="http://www.w3.org/2000/svg">
<path d="M1.72041 8.57857C3.00309 6.0244 4.97082 3.87727 7.40366 2.37717C9.8365 0.877059 12.6386 0.0830847 15.4967 0.0839851C19.6515 0.0839851 23.1419 1.61024 25.8105 4.10003L21.3905 8.52153C19.7918 6.99374 17.7599 6.21519 15.4967 6.21519C11.4807 6.21519 8.08133 8.92853 6.87112 12.5715C6.56279 13.4965 6.38704 14.4832 6.38704 15.5007C6.38704 16.5182 6.56279 17.5048 6.87112 18.4298C8.08287 22.0743 11.4807 24.7861 15.4967 24.7861C17.5703 24.7861 19.3355 24.2388 20.7168 23.3138C21.5176 22.7866 22.2032 22.1024 22.7321 21.3027C23.261 20.503 23.6222 19.6043 23.794 18.6611H15.4967V12.6979H30.0162C30.1981 13.7062 30.2967 14.7576 30.2967 15.8506C30.2967 20.5465 28.6163 24.4994 25.6995 27.1819C23.1496 29.5375 19.6592 30.9173 15.4967 30.9173C13.472 30.9181 11.4669 30.5199 9.59608 29.7454C7.72528 28.971 6.02544 27.8354 4.59371 26.4037C3.16198 24.972 2.02643 23.2721 1.25195 21.4013C0.47748 19.5305 0.079269 17.5254 0.0800794 15.5007C0.0800794 13.0124 0.675163 10.6598 1.72041 8.57857Z" fill="#396FC7"/>
</svg>
