<svg width="33" height="27" viewBox="0 0 33 27" fill="none" xmlns="http://www.w3.org/2000/svg">
<path d="M32.1631 3.7187C30.9861 4.23931 29.7379 4.58122 28.46 4.73312C29.807 3.92749 30.8152 2.6596 31.2966 1.1657C30.0325 1.91803 28.6465 2.44528 27.202 2.73049C26.2317 1.6923 24.9455 1.00377 23.5435 0.771934C22.1415 0.5401 20.7022 0.777956 19.4493 1.44852C18.1965 2.11909 17.2002 3.18479 16.6155 4.47996C16.0308 5.77513 15.8904 7.22719 16.216 8.61041C13.6524 8.48191 11.1445 7.81571 8.85503 6.65506C6.56559 5.4944 4.54583 3.86523 2.92688 1.87332C2.35383 2.8576 2.05269 3.97651 2.0543 5.11545C2.0543 7.35086 3.19205 9.32574 4.9218 10.482C3.89815 10.4498 2.89702 10.1733 2.00188 9.6757V9.75586C2.00219 11.2447 2.51737 12.6875 3.46006 13.8398C4.40276 14.9921 5.71496 15.783 7.17417 16.0782C6.22391 16.3358 5.22752 16.3737 4.26042 16.1892C4.67184 17.4707 5.47373 18.5915 6.5538 19.3945C7.63386 20.1976 8.93804 20.6428 10.2837 20.6678C8.94629 21.7182 7.41495 22.4946 5.77724 22.9528C4.13953 23.411 2.42758 23.5418 0.739258 23.3379C3.68646 25.2333 7.11728 26.2396 10.6213 26.2363C22.4814 26.2363 28.9672 16.4112 28.9672 7.89045C28.9672 7.61295 28.9595 7.33237 28.9471 7.05795C30.2095 6.14554 31.2991 5.01527 32.1646 3.72024L32.1631 3.7187Z" fill="#3970C7"/>
</svg>
